# xmcd
#
# Track frame offsets: 
#        150
#        11627
#        20577
#        35465
#        49380
#        62474
#        81415
#        91973
#        102652
#        114198
#        135890
#        153850
#        164105
#        177754
#        188851
#        202108
#        216810
#        235749
#        250601
#        262194
#        273214
#        293227
#        309037
#        321994
#        340013
#
# Disc length: 4697 seconds
#
# Revision: 2
# Processed by: cddbd v1.5.2PL0 Copyright (c) Steve Scherf et al.
# Submitted via: ExactAudioCopy v1.0b3
#
DISCID=5e125719
DTITLE=Татьяна и  Сергей Никитины - Российские Барды (Том 24)
DYEAR=2010
DGENRE=Chanson
TTITLE0=Дон Кихот (муз. С. Никитина, Д. Гальцова, сл. В. Миляева)
TTITLE1=Снегурочка (сл. И. Уткина)
TTITLE2=Палуба (муз. Ю. Левитина, сл. Г. Шпаликова)
TTITLE3=Снежный вальс (сл. Г. Иванова)
TTITLE4=Я иду по городу (сл. Г. Шпаликова)
TTITLE5=Птицелов (сл. Э. Багрицкого)
TTITLE6=Понедельник, понедельник (сл. Г. Шпаликова)
TTITLE7=Дорога в дождь (муз. А. Дулова, сл. Е. Евтушенко)
TTITLE8=Влетел на свет осенний жук (сл. Г. Шпаликова)
TTITLE9=Там, за рекою лошади бредут (сл. Г. Шпаликова)
TTITLE10=На Горелом на болоте (сл. Д. Сухарева)
TTITLE11=Как размножаются крокодилы (сл. В. Миляева)
TTITLE12=А легко ль переносить... (сл. А. Володина)
TTITLE13=Времена не выбирают (сл. А. Кушнера)
TTITLE14=Письмо (сл. Д. Сухарева)
TTITLE15=Ритмы Рима (муз. А. Дулова, сл. Е. Евтушенко)
TTITLE16=Любимая, спи  (муз. Э. Колмановского, сл. Е. Евтушенко)
TTITLE17=Куплю тебе платье (сл. Д. Сухарева)
TTITLE18=Две женщины (сл. Д. Сухарева)
TTITLE19=Три фигурки (сл. Е. Евтушенко)
TTITLE20=Нет лет (сл. Е. Евтушенко)
TTITLE21=Аиои (сл. Д. Сухарева)
TTITLE22=Остаётся во фляге (сл. Г. Шпаликова)
TTITLE23=Я к вам травою прорасту (сл. Г. Шпаликова)
TTITLE24=Под музыку Вивальди (муз. С. Никитина, В. Берковского, сл. А.
TTITLE24=Величанского)
EXTD=
EXTT0=
EXTT1=
EXTT2=
EXTT3=
EXTT4=
EXTT5=
EXTT6=
EXTT7=
EXTT8=
EXTT9=
EXTT10=
EXTT11=
EXTT12=
EXTT13=
EXTT14=
EXTT15=
EXTT16=
EXTT17=
EXTT18=
EXTT19=
EXTT20=
EXTT21=
EXTT22=
EXTT23=
EXTT24=
PLAYORDER=
